HIERARCHY
ROOT RootJoint
{
    OFFSET   0.000000   0.000000   0.000000
    CHANNELS 6 Xposition Yposition Zposition Xrotation Yrotation Zrotation
    JOINT pelvis_lowerback
    {
        OFFSET   0.000000   0.093605   0.000000
        CHANNELS 3 Xrotation Yrotation Zrotation
        JOINT lowerback_torso
        {
            OFFSET   0.000000   0.100000   0.000000
            CHANNELS 3 Xrotation Yrotation Zrotation
            JOINT torso_head
            {
                OFFSET   0.000000   0.282350   0.000000
                CHANNELS 3 Xrotation Yrotation Zrotation
                End Site
                {
                    OFFSET   0.000000   0.192650   0.000000
                }
            }
            JOINT rTorso_Clavicle
            {
                OFFSET  -0.001000   0.157500   0.000000
                CHANNELS 3 Xrotation Yrotation Zrotation
                JOINT rShoulder
                {
                    OFFSET  -0.117647   0.000000   0.000000
                    CHANNELS 3 Xrotation Yrotation Zrotation
                    JOINT rElbow
                    {
                        OFFSET  -0.245000   0.000000   0.000000
                        CHANNELS 3 Xrotation Yrotation Zrotation
                        JOINT rWrist
                        {
                            OFFSET  -0.240000   0.000000   0.000000
                            CHANNELS 3 Xrotation Yrotation Zrotation
                            End Site
                            {
                                OFFSET  -0.116353  -0.002500   0.000000
                            }
                        }
                    }
                }
            }
            JOINT lTorso_Clavicle
            {
                OFFSET   0.001000   0.157500   0.000000
                CHANNELS 3 Xrotation Yrotation Zrotation
                JOINT lShoulder
                {
                    OFFSET   0.117647   0.000000   0.000000
                    CHANNELS 3 Xrotation Yrotation Zrotation
                    JOINT lElbow
                    {
                        OFFSET   0.245000   0.000000   0.000000
                        CHANNELS 3 Xrotation Yrotation Zrotation
                        JOINT lWrist
                        {
                            OFFSET   0.240000   0.000000   0.000000
                            CHANNELS 3 Xrotation Yrotation Zrotation
                            End Site
                            {
                                OFFSET   0.116353  -0.002500   0.000000
                            }
                        }
                    }
                }
            }
        }
    }
    JOINT rHip
    {
        OFFSET  -0.100000  -0.051395   0.000000
        CHANNELS 3 Xrotation Yrotation Zrotation
        JOINT rKnee
        {
            OFFSET   0.000000  -0.410000   0.000000
            CHANNELS 3 Xrotation Yrotation Zrotation
            JOINT rAnkle
            {
                OFFSET   0.000000  -0.390000   0.000000
                CHANNELS 3 Xrotation Yrotation Zrotation
                JOINT rToeJoint
                {
                    OFFSET   0.000000  -0.050000   0.130000
                    CHANNELS 3 Xrotation Yrotation Zrotation
                    End Site
                    {
                        OFFSET  -0.010000   0.002000   0.060000
                    }
                }
            }
        }
    }
    JOINT lHip
    {
        OFFSET   0.100000  -0.051395   0.000000
        CHANNELS 3 Xrotation Yrotation Zrotation
        JOINT lKnee
        {
            OFFSET   0.000000  -0.410000   0.000000
            CHANNELS 3 Xrotation Yrotation Zrotation
            JOINT lAnkle
            {
                OFFSET   0.000000  -0.390000   0.000000
                CHANNELS 3 Xrotation Yrotation Zrotation
                JOINT lToeJoint
                {
                    OFFSET   0.000000  -0.050000   0.130000
                    CHANNELS 3 Xrotation Yrotation Zrotation
                    End Site
                    {
                        OFFSET   0.010000   0.002000   0.060000
                    }
                }
            }
        }
    }
}
MOTION
Frames: 10
Frame Time:   0.008333
 -2.376719   0.925631   3.975860   0.000000   0.000000   0.000000   0.000000   0.000000   0.000000   0.000000   0.000000   0.000000   0.000000   0.000000   0.000000   0.000000   0.000000   0.000000   0.000000   0.000000   0.000000   0.000000   0.000000   0.000000   0.000000   0.000000   0.000000   0.000000   0.000000   0.000000   0.000000   0.000000   0.000000   0.000000   0.000000   0.000000   0.000000   0.000000   0.000000   0.000000   0.000000   0.000000   0.000000   0.000000   0.000000   0.000000   0.000000   0.000000   0.000000   0.000000   0.000000   0.000000   0.000000   0.000000   0.000000   0.000000   0.000000   0.000000   0.000000   0.000000   0.000000   0.000000   0.000000
 -2.377402   0.926389   3.975117  -0.472133   0.024218  -0.403888   0.751522   0.153111   0.196015  -0.026362  -0.434474   0.194555  -0.164397  -0.292911   0.296193   0.133036  -0.283072   0.878570   0.780997   0.854797   1.704589   0.021439   0.948147  -0.009781   0.514617  -0.844089  -3.305804   0.329119   0.317413  -0.629338   1.474102   0.219622  -1.800881   0.006765  -0.317055   0.005699   0.607305  -0.175039   2.833809   0.038647   0.050933   0.689907   2.267363  -0.005622   0.001614  -2.895059  -0.501020  -0.493234   0.284584   0.000497  -0.001086  -0.956998   0.248810   0.401471   3.634637   0.000454   0.008861  -0.667226   0.487018   0.087042   0.096506  -0.000075   0.000645
 -2.378272   0.927692   3.974642  -1.113012   0.020721  -0.845597   1.520514   0.349588   0.365108   0.073623  -0.809073   0.437558  -0.283634  -0.591184   0.595254   0.263311  -0.444444   2.563494   1.506070   1.829228   4.059443   0.051050   1.899379  -0.016924   1.046685  -1.324300  -5.875231   0.663244   0.614998  -2.001738   2.941848   0.403435  -4.215034   0.015189  -0.609316   0.009729   1.278958  -0.353352   4.950524   0.450663   0.106972   1.558154   4.736704  -0.013529   0.003107  -5.608287  -0.946221  -0.973115   0.410120   0.000443  -0.001327  -2.091896   0.542236   0.787265   7.281024   0.004017   0.016761  -1.487020   1.003075   0.155870  -2.605459   0.000297  -0.018905
 -2.379212   0.929129   3.974622  -1.756219  -0.085079  -1.237723   2.179855   0.620387   0.478800   0.163545  -1.078431   0.666958  -0.382726  -0.871490   0.869821   0.388188  -0.522439   4.723747   2.163431   2.880137   6.846751   0.080647   2.810337  -0.020772   1.561250  -1.602376  -7.490253   0.981118   0.895044  -3.818475   4.397450   0.528729  -7.034217   0.023271  -0.879617   0.012189   1.936929  -0.530711   6.208730   1.090212   0.178126   2.471965   7.162897  -0.021834   0.003063  -8.139424  -1.337769  -1.436084   0.530227   0.000285  -0.001546  -3.240883   0.840986   1.150641  10.941122   0.007123   0.020116  -2.199434   1.527562   0.256881  -3.996115   0.001775  -0.024092
 -2.380097   0.930261   3.974953  -2.350752  -0.326702  -1.594946   2.728076   0.965424   0.581254   0.202061  -1.242703   0.878027  -0.479644  -1.132728   1.118963   0.509113  -0.542955   7.120106   2.749795   3.993818   9.912005   0.106330   3.673834  -0.022276   2.057711  -1.760561  -8.384786   1.282336   1.176771  -5.882431   5.844867   0.596102 -10.130795   0.029925  -1.127039   0.013464   2.570576  -0.701776   6.812274   1.867705   0.265155   3.408430   9.501204  -0.029782   0.001191 -10.503145  -1.682562  -1.880403   0.639516   0.000094  -0.001756  -4.401078   1.072191   1.439580  14.382573   0.010365   0.016063  -2.769277   1.967029   0.354655  -4.331889   0.001726  -0.020588
 -2.380873   0.930771   3.975530  -2.894611  -0.683003  -1.931860   3.187219   1.365330   0.689935   0.194530  -1.318533   1.087388  -0.577353  -1.376615   1.346245   0.626757  -0.520868   9.632933   3.248988   5.129079  13.080393   0.126359   4.489435  -0.022229   2.537411  -1.835592  -8.756462   1.570019   1.464563  -8.062487   7.286285   0.601414 -13.415117   0.034793  -1.352491   0.013933   3.175663  -0.859721   6.967291   2.751191   0.367156   4.354253  11.740734  -0.036987  -0.001645 -12.710968  -1.986780  -2.305805   0.737403  -0.000089  -0.001927  -5.585851   1.256872   1.637378  17.571653   0.013640   0.007760  -3.242684   2.344018   0.447937  -4.038662   0.001401  -0.015906
 -2.381508   0.930446   3.976273  -3.394313  -1.120170  -2.255566   3.577195   1.801675   0.812109   0.154580  -1.324715   1.309836  -0.674570  -1.604607   1.554541   0.741484  -0.466591  12.195353   3.650762   6.237299  16.194263   0.140243   5.258698  -0.021198   3.001153  -1.846093  -8.746351   1.847046   1.755288 -10.272025   8.721697   0.538191 -16.825065   0.037954  -1.558395   0.013889   3.751607  -1.005130   6.830972   3.720894   0.485108   5.295998  13.880783  -0.043188  -0.004563 -14.772988  -2.255395  -2.712384   0.825305  -0.000244  -0.002040  -6.798553   1.416731   1.748051  20.518441   0.016632  -0.001988  -3.662984   2.681224   0.536948  -3.533597   0.001480  -0.012464
 -2.381489   0.928469   3.976185  -3.610407  -1.486961  -2.218252   3.781105   2.236422   0.681361   0.199356  -1.207151   1.461539  -1.034265  -1.603587   1.548270   0.888740  -0.178201  14.129106   3.937605   7.071619  18.879221   0.150981   6.177573  -0.023415   3.396666  -1.898062  -7.375457   2.065316   1.895165 -11.871029  10.073464   0.136230 -19.970546   0.037475  -1.729519   0.013444   4.126613  -1.216249   5.450710   4.926666   0.497333   5.679889  14.203448  -0.036138  -0.004425 -16.196100  -2.419564  -2.980350   1.372549  -0.001176  -0.004604  -8.818743   1.790421   1.444272  24.384230   0.025604  -0.005677  -4.612670   3.128792   1.001432  -3.256605   0.000792  -0.009065
 -2.381219   0.925080   3.975578  -3.796073  -2.009829  -2.109083   4.064653   2.769415   0.540261   0.261963  -0.990249   1.551686  -1.383103  -1.587380   1.528541   0.957582   0.221057  15.662864   4.147611   7.943237  21.192851   0.152668   7.065716  -0.026115   3.803083  -1.820963  -6.185936   2.246175   1.958378 -13.160841  11.298911  -0.340946 -22.756285   0.036277  -1.905617   0.013094   4.487369  -1.504788   4.179462   6.114635   0.536111   5.871626  14.268019  -0.029188  -0.003829 -17.534115  -2.567011  -3.234816   1.892426  -0.001530  -0.007057 -10.966606   2.190830   1.094560  28.276776   0.031155  -0.015083  -5.503171   3.542768   1.443418  -3.036019   0.000351  -0.006933
 -2.380861   0.920454   3.974735  -3.973675  -2.620001  -1.990246   4.391795   3.340279   0.406246   0.349224  -0.713608   1.618021  -1.698399  -1.570070   1.512489   0.955386   0.683222  16.909502   4.288744   8.828790  23.216662   0.148792   7.921555  -0.028434   4.217508  -1.620613  -5.325270   2.404683   1.991029 -14.224568  12.415233  -0.845699 -25.244450   0.034322  -2.074960   0.012613   4.830912  -1.811873   3.166083   7.269973   0.580756   5.972225  14.287469  -0.023424  -0.003196 -18.785651  -2.701231  -3.476190   2.369083  -0.001557  -0.009019 -13.106777   2.576736   0.780831  31.976238   0.032205  -0.026443  -6.336224   3.921411   1.863045  -2.833255  -0.000006  -0.005548
